<svg xmlns="http://www.w3.org/2000/svg" width="175" height="150" viewBox="0 0 175 150"><defs><style>.a{fill:#c7eafb;}.b{fill:#05ade5;}.c{fill:#fff5f5;}.d{fill:#155196;}.e{fill:#8ed8f8;}.f{fill:#fff;}</style></defs><g transform="translate(0 -12.273)"><path class="a" d="M123.02,48.334a10.233,10.233,0,1,1-9.3,18.232c-5.048-2.56-13.631-18.385-13.631-18.385s17.879-2.407,22.928.153Z"/><path class="b" d="M123.02,46.969c-5.048-2.56-22.928-.153-22.928-.153s8.583,15.825,13.631,18.385a10.233,10.233,0,1,0,9.3-18.232Zm2.829,10.248a6.854,6.854,0,0,1-9.2,2.991c-3.37-1.709-9.1-12.274-9.1-12.274s11.936-1.607,15.307.1h0A6.819,6.819,0,0,1,125.849,57.218Z"/><path class="c" d="M64.941,138.409A61.364,61.364,0,1,1,98.431,25.561a30.74,30.74,0,0,1-19.086,10.3,15.342,15.342,0,0,1-14.4,20.731c-.178,0-.352,0-.53.007a40.907,40.907,0,0,0,.53,81.811Z"/><path class="d" d="M124.569,45.3c-5.709-2.9-21.772-.918-24.934-.493a3.408,3.408,0,0,0-2.549,5c1.518,2.8,9.379,16.907,15.088,19.8a13.644,13.644,0,1,0,12.4-24.31Zm-.1,15.246a6.852,6.852,0,0,1-9.192,2.986c-2.017-1.023-6.092-6.658-9.631-12.532,6.846-.609,13.813-.645,15.83.378a6.818,6.818,0,0,1,2.994,9.168Z"/><path class="d" d="M173.674,94.081a3.425,3.425,0,0,0-2.95-.6,22.641,22.641,0,0,1-4.953.614A18.6,18.6,0,0,1,152.28,88.2a3.424,3.424,0,0,0-5.146,0,18.4,18.4,0,0,1-26.983,0,3.424,3.424,0,0,0-5.146,0,18.4,18.4,0,0,1-26.983,0,3.424,3.424,0,0,0-5.146,0c-5.2,5.936-15.151,7.934-23.655,4.749-7.226-2.706-11.37-8.5-11.37-15.907A16.96,16.96,0,0,1,64.479,60.006c11.9-.23,19.261-9.132,19.261-18.756a18.841,18.841,0,0,0-.2-2.73A34.2,34.2,0,0,0,101.011,27.8a3.4,3.4,0,0,0-.717-5.094A64.984,64.984,0,0,0,0,77.045v81.818a3.413,3.413,0,0,0,3.418,3.409H171.582A3.413,3.413,0,0,0,175,158.864V96.777A3.406,3.406,0,0,0,173.674,94.081ZM64.941,19.091a58.029,58.029,0,0,1,27.966,7.141,27.3,27.3,0,0,1-14.02,6.25,3.409,3.409,0,0,0-2.742,4.578,11.835,11.835,0,0,1,.759,4.19A11.961,11.961,0,0,1,64.941,53.182c-.19,0-.41,0-.616.008C34,59.636,20.508,73.72,20.508,97.5a44.125,44.125,0,0,0,6.929,23.772,57.9,57.9,0,0,1,37.5-102.181ZM168.164,155.455H6.836V105.948c10.514,20.942,32.076,36.334,57.017,36.745.363.009,6.216-.875,6.216-.875a23.81,23.81,0,0,0,15.409-5.711,25.369,25.369,0,0,0,32.1-.023,25.369,25.369,0,0,0,32.129,0,25.792,25.792,0,0,0,16.064,5.734c.739,0,1.559-.044,2.393-.122Zm0-20.614a21.054,21.054,0,0,1-2.393.159,18.6,18.6,0,0,1-13.491-5.888,3.424,3.424,0,0,0-5.146,0,18.4,18.4,0,0,1-26.983,0,3.424,3.424,0,0,0-5.146,0,18.4,18.4,0,0,1-26.983,0,3.424,3.424,0,0,0-5.146,0,17.089,17.089,0,0,1-12.808,5.9S64.314,135.005,64,135a37.55,37.55,0,0,1-30.442-16.79,21.992,21.992,0,0,0,3.192,1.141,19.747,19.747,0,0,0,17.923-3.688,23.642,23.642,0,0,0,30.8-.011,25.369,25.369,0,0,0,32.1-.023,25.369,25.369,0,0,0,32.129,0,25.792,25.792,0,0,0,16.064,5.734c.739,0,1.559-.044,2.393-.122Zm0-20.454a21.06,21.06,0,0,1-2.393.159,18.6,18.6,0,0,1-13.491-5.888,3.424,3.424,0,0,0-5.146,0,18.4,18.4,0,0,1-26.983,0,3.424,3.424,0,0,0-5.146,0,18.4,18.4,0,0,1-26.983,0,3.424,3.424,0,0,0-5.146,0,16.874,16.874,0,0,1-25.616,0,3.422,3.422,0,0,0-2.562-1.165,3.587,3.587,0,0,0-2.861,1.474,12.86,12.86,0,0,1-13.291,3.807c-6.2-1.683-11.2-6.875-11.2-15.273A37.522,37.522,0,0,1,43.269,66.916a23.741,23.741,0,0,0-2.253,10.129c0,10.251,5.908,18.584,15.8,22.29a31.253,31.253,0,0,0,16.611,1.371,26.351,26.351,0,0,0,12.034-5.52,25.368,25.368,0,0,0,32.115-.012,25.369,25.369,0,0,0,32.129,0,25.792,25.792,0,0,0,16.064,5.734c.74,0,1.558-.043,2.393-.121Z"/><path class="b" d="M149.707,136.084a25.369,25.369,0,0,1-32.129,0,25.369,25.369,0,0,1-32.1.023,23.81,23.81,0,0,1-15.409,5.711s-5.853.884-6.216.875c-24.94-.411-46.5-15.8-57.017-36.745v49.506H168.164V141.7c-.834.078-1.653.122-2.393.122A25.792,25.792,0,0,1,149.707,136.084Z"/><path class="a" d="M168.164,100.788c-.834.078-1.653.121-2.393.121a25.792,25.792,0,0,1-16.064-5.734,25.369,25.369,0,0,1-32.129,0,25.368,25.368,0,0,1-32.115.012,26.351,26.351,0,0,1-12.034,5.52,31.253,31.253,0,0,1-16.611-1.371c-9.9-3.705-15.8-12.038-15.8-22.29a23.741,23.741,0,0,1,2.253-10.129A37.522,37.522,0,0,0,27.344,97.5c0,8.4,5.007,13.59,11.2,15.273a12.86,12.86,0,0,0,13.291-3.807,3.587,3.587,0,0,1,2.861-1.474,3.422,3.422,0,0,1,2.562,1.165,16.874,16.874,0,0,0,25.616,0,3.424,3.424,0,0,1,5.146,0,18.4,18.4,0,0,0,26.983,0,3.424,3.424,0,0,1,5.146,0,18.4,18.4,0,0,0,26.983,0,3.424,3.424,0,0,1,5.146,0,18.6,18.6,0,0,0,13.491,5.888,21.06,21.06,0,0,0,2.393-.159Z"/><path class="e" d="M168.164,121.241c-.834.078-1.653.122-2.393.122a25.792,25.792,0,0,1-16.064-5.734,25.369,25.369,0,0,1-32.129,0,25.369,25.369,0,0,1-32.1.023,23.642,23.642,0,0,1-30.8.011,19.747,19.747,0,0,1-17.923,3.688,21.992,21.992,0,0,1-3.192-1.141A37.55,37.55,0,0,0,64,135c.314.005,6.069.012,6.069.012a17.089,17.089,0,0,0,12.808-5.9,3.424,3.424,0,0,1,5.146,0,18.4,18.4,0,0,0,26.983,0,3.424,3.424,0,0,1,5.146,0,18.4,18.4,0,0,0,26.983,0,3.424,3.424,0,0,1,5.146,0A18.6,18.6,0,0,0,165.771,135a21.054,21.054,0,0,0,2.393-.159Z"/><ellipse class="d" cx="44.275" cy="44.16" rx="44.275" ry="44.16" transform="translate(19.515 54.375)"/><ellipse class="f" cx="38.103" cy="38.004" rx="38.103" ry="38.004" transform="translate(25.687 60.531)"/><path class="b" d="M52.366,121.492V114.5l12.3-17.474c.149-.2.467-.634.953-1.324s.823-1.156.991-1.4.448-.69.841-1.305q.589-.951.842-1.455c.15-.336.374-.821.636-1.436a10.2,10.2,0,0,0,.561-1.66c.112-.485.206-1.044.3-1.7a13.831,13.831,0,0,0,.131-1.977,8.689,8.689,0,0,0-1.365-4.961,4.392,4.392,0,0,0-3.908-2.033,4.342,4.342,0,0,0-2.58.746,4.7,4.7,0,0,0-1.627,2.052,12.25,12.25,0,0,0-.8,2.778,18.754,18.754,0,0,0-.243,3.189V88.3H52.385V86.544q0-6.881,2.954-10.685t9.311-3.8c3.983,0,7.011,1.119,9.124,3.338,2.094,2.238,3.141,5.352,3.141,9.38a21.573,21.573,0,0,1-.393,4.233,16.524,16.524,0,0,1-1.253,3.767,29.783,29.783,0,0,1-1.589,2.984c-.486.783-1.159,1.79-2.019,3L59.4,114.5H76.934v6.993Z"/></g></svg>